<mxfile host="app.diagrams.net" modified="2024-04-29T20:04:05.339Z" agent="Mozilla/5.0 (Windows NT 10.0; Win64; x64) AppleWebKit/537.36 (KHTML, like Gecko) Chrome/124.0.0.0 Safari/537.36" etag="oGtKaupxI1D4ihQWkP7B" version="24.3.1" type="google" pages="4">
  <diagram name="Admin" id="ueV5-UdDaxoVTYJ3zC9y">
    <mxGraphModel dx="1434" dy="780" grid="1" gridSize="10" guides="1" tooltips="1" connect="1" arrows="1" fold="1" page="1" pageScale="1" pageWidth="200000" pageHeight="200000" math="0" shadow="0">
      <root>
        <mxCell id="0" />
        <mxCell id="1" parent="0" />
        <mxCell id="oMNCSlBhxs57B0v-J_GE-1" value="&lt;font style=&quot;vertical-align: inherit;&quot;&gt;&lt;font style=&quot;vertical-align: inherit;&quot;&gt;ADMIN&lt;/font&gt;&lt;/font&gt;" style="shape=umlActor;verticalLabelPosition=bottom;verticalAlign=top;html=1;" parent="1" vertex="1">
          <mxGeometry x="40" y="335" width="30" height="60" as="geometry" />
        </mxCell>
        <mxCell id="oMNCSlBhxs57B0v-J_GE-2" value="CU1:Inicio Sesion" style="ellipse;whiteSpace=wrap;html=1;" parent="1" vertex="1">
          <mxGeometry x="170" y="347.5" width="70" height="45" as="geometry" />
        </mxCell>
        <mxCell id="oMNCSlBhxs57B0v-J_GE-3" value="Registo" style="ellipse;whiteSpace=wrap;html=1;" parent="1" vertex="1">
          <mxGeometry x="160" y="240" width="80" height="30" as="geometry" />
        </mxCell>
        <mxCell id="oMNCSlBhxs57B0v-J_GE-4" value="" style="endArrow=block;startArrow=block;endFill=1;startFill=1;html=1;rounded=0;entryX=0.443;entryY=-0.014;entryDx=0;entryDy=0;entryPerimeter=0;" parent="1" source="oMNCSlBhxs57B0v-J_GE-3" target="oMNCSlBhxs57B0v-J_GE-2" edge="1">
          <mxGeometry width="160" relative="1" as="geometry">
            <mxPoint x="200" y="210" as="sourcePoint" />
            <mxPoint x="200" y="370" as="targetPoint" />
          </mxGeometry>
        </mxCell>
        <mxCell id="oMNCSlBhxs57B0v-J_GE-7" value="CU2:Soliciud afiliaciÃ³n" style="ellipse;whiteSpace=wrap;html=1;" parent="1" vertex="1">
          <mxGeometry x="280" y="280" width="80" height="40" as="geometry" />
        </mxCell>
        <mxCell id="oMNCSlBhxs57B0v-J_GE-8" value="CU3:Solicitud Citas" style="ellipse;whiteSpace=wrap;html=1;" parent="1" vertex="1">
          <mxGeometry x="280" y="352.5" width="80" height="40" as="geometry" />
        </mxCell>
        <mxCell id="oMNCSlBhxs57B0v-J_GE-9" value="CU4: Solicitud examenes" style="ellipse;whiteSpace=wrap;html=1;" parent="1" vertex="1">
          <mxGeometry x="280" y="420" width="80" height="40" as="geometry" />
        </mxCell>
        <mxCell id="oMNCSlBhxs57B0v-J_GE-11" value="CU5:Asignacion de citas" style="ellipse;whiteSpace=wrap;html=1;" parent="1" vertex="1">
          <mxGeometry x="430" y="345" width="100" height="50" as="geometry" />
        </mxCell>
        <mxCell id="oMNCSlBhxs57B0v-J_GE-12" value="Extends" style="endArrow=block;endSize=16;endFill=0;html=1;rounded=0;" parent="1" edge="1">
          <mxGeometry width="160" relative="1" as="geometry">
            <mxPoint x="70" y="370" as="sourcePoint" />
            <mxPoint x="170" y="370" as="targetPoint" />
          </mxGeometry>
        </mxCell>
        <mxCell id="oMNCSlBhxs57B0v-J_GE-14" value="Use" style="endArrow=open;endSize=12;dashed=1;html=1;rounded=0;" parent="1" source="oMNCSlBhxs57B0v-J_GE-2" edge="1">
          <mxGeometry width="160" relative="1" as="geometry">
            <mxPoint x="240" y="370" as="sourcePoint" />
            <mxPoint x="280" y="370" as="targetPoint" />
          </mxGeometry>
        </mxCell>
        <mxCell id="oMNCSlBhxs57B0v-J_GE-15" value="Use" style="endArrow=open;endSize=12;dashed=1;html=1;rounded=0;" parent="1" source="oMNCSlBhxs57B0v-J_GE-2" target="oMNCSlBhxs57B0v-J_GE-7" edge="1">
          <mxGeometry width="160" relative="1" as="geometry">
            <mxPoint x="240" y="370" as="sourcePoint" />
            <mxPoint x="400" y="370" as="targetPoint" />
          </mxGeometry>
        </mxCell>
        <mxCell id="oMNCSlBhxs57B0v-J_GE-16" value="Use" style="endArrow=open;endSize=12;dashed=1;html=1;rounded=0;exitX=0.94;exitY=0.797;exitDx=0;exitDy=0;exitPerimeter=0;entryX=0.258;entryY=0.136;entryDx=0;entryDy=0;entryPerimeter=0;" parent="1" source="oMNCSlBhxs57B0v-J_GE-2" target="oMNCSlBhxs57B0v-J_GE-9" edge="1">
          <mxGeometry width="160" relative="1" as="geometry">
            <mxPoint x="220" y="400" as="sourcePoint" />
            <mxPoint x="280" y="440" as="targetPoint" />
          </mxGeometry>
        </mxCell>
        <mxCell id="oMNCSlBhxs57B0v-J_GE-17" value="CU8: Lectura de resultados" style="ellipse;whiteSpace=wrap;html=1;" parent="1" vertex="1">
          <mxGeometry x="560" y="500" width="100" height="40" as="geometry" />
        </mxCell>
        <mxCell id="oMNCSlBhxs57B0v-J_GE-18" value="Extends" style="endArrow=block;endSize=16;endFill=0;html=1;rounded=0;" parent="1" source="oMNCSlBhxs57B0v-J_GE-9" target="oMNCSlBhxs57B0v-J_GE-23" edge="1">
          <mxGeometry width="160" relative="1" as="geometry">
            <mxPoint x="360" y="440" as="sourcePoint" />
            <mxPoint x="460" y="470" as="targetPoint" />
          </mxGeometry>
        </mxCell>
        <mxCell id="oMNCSlBhxs57B0v-J_GE-21" value="Extends" style="endArrow=block;endSize=16;endFill=0;html=1;rounded=0;" parent="1" source="oMNCSlBhxs57B0v-J_GE-8" target="oMNCSlBhxs57B0v-J_GE-11" edge="1">
          <mxGeometry width="160" relative="1" as="geometry">
            <mxPoint x="360" y="372.5" as="sourcePoint" />
            <mxPoint x="520" y="372.5" as="targetPoint" />
          </mxGeometry>
        </mxCell>
        <mxCell id="oMNCSlBhxs57B0v-J_GE-23" value="CU6: Asignacion deExamen" style="ellipse;whiteSpace=wrap;html=1;" parent="1" vertex="1">
          <mxGeometry x="430" y="460" width="100" height="40" as="geometry" />
        </mxCell>
        <mxCell id="oMNCSlBhxs57B0v-J_GE-24" value="Extends" style="endArrow=block;endSize=16;endFill=0;html=1;rounded=0;" parent="1" source="oMNCSlBhxs57B0v-J_GE-7" target="oMNCSlBhxs57B0v-J_GE-38" edge="1">
          <mxGeometry width="160" relative="1" as="geometry">
            <mxPoint x="420" y="290" as="sourcePoint" />
            <mxPoint x="417.25347307910647" y="232.67067248369563" as="targetPoint" />
          </mxGeometry>
        </mxCell>
        <mxCell id="oMNCSlBhxs57B0v-J_GE-25" value="Extends" style="endArrow=block;endSize=16;endFill=0;html=1;rounded=0;exitX=0.996;exitY=0.636;exitDx=0;exitDy=0;exitPerimeter=0;" parent="1" source="oMNCSlBhxs57B0v-J_GE-23" target="oMNCSlBhxs57B0v-J_GE-17" edge="1">
          <mxGeometry width="160" relative="1" as="geometry">
            <mxPoint x="400" y="520" as="sourcePoint" />
            <mxPoint x="560" y="520" as="targetPoint" />
          </mxGeometry>
        </mxCell>
        <mxCell id="oMNCSlBhxs57B0v-J_GE-26" value="CU9:Bases de datos" style="ellipse;whiteSpace=wrap;html=1;" parent="1" vertex="1">
          <mxGeometry x="200" y="470" width="90" height="70" as="geometry" />
        </mxCell>
        <mxCell id="oMNCSlBhxs57B0v-J_GE-27" value="Use" style="endArrow=open;endSize=12;dashed=1;html=1;rounded=0;" parent="1" source="oMNCSlBhxs57B0v-J_GE-2" target="oMNCSlBhxs57B0v-J_GE-26" edge="1">
          <mxGeometry width="160" relative="1" as="geometry">
            <mxPoint x="70" y="519.66" as="sourcePoint" />
            <mxPoint x="230" y="519.66" as="targetPoint" />
          </mxGeometry>
        </mxCell>
        <mxCell id="oMNCSlBhxs57B0v-J_GE-28" value="CU10: Historial medico paciente" style="ellipse;whiteSpace=wrap;html=1;" parent="1" vertex="1">
          <mxGeometry x="210" y="580" width="90" height="60" as="geometry" />
        </mxCell>
        <mxCell id="oMNCSlBhxs57B0v-J_GE-29" value="Use" style="endArrow=open;endSize=12;dashed=1;html=1;rounded=0;exitX=0.559;exitY=1.048;exitDx=0;exitDy=0;exitPerimeter=0;" parent="1" source="oMNCSlBhxs57B0v-J_GE-26" target="oMNCSlBhxs57B0v-J_GE-28" edge="1">
          <mxGeometry width="160" relative="1" as="geometry">
            <mxPoint x="260" y="550" as="sourcePoint" />
            <mxPoint x="420" y="550" as="targetPoint" />
          </mxGeometry>
        </mxCell>
        <mxCell id="oMNCSlBhxs57B0v-J_GE-30" value="CU11: Personal" style="ellipse;whiteSpace=wrap;html=1;" parent="1" vertex="1">
          <mxGeometry x="330" y="540" width="50" height="55" as="geometry" />
        </mxCell>
        <mxCell id="oMNCSlBhxs57B0v-J_GE-31" value="Use" style="endArrow=open;endSize=12;dashed=1;html=1;rounded=0;" parent="1" source="oMNCSlBhxs57B0v-J_GE-26" target="oMNCSlBhxs57B0v-J_GE-30" edge="1">
          <mxGeometry width="160" relative="1" as="geometry">
            <mxPoint x="290" y="520" as="sourcePoint" />
            <mxPoint x="450" y="520" as="targetPoint" />
          </mxGeometry>
        </mxCell>
        <mxCell id="oMNCSlBhxs57B0v-J_GE-32" value="CU12:Receta de medicamentos&lt;div&gt;&lt;br&gt;&lt;/div&gt;" style="ellipse;whiteSpace=wrap;html=1;" parent="1" vertex="1">
          <mxGeometry x="620" y="353" width="110" height="47" as="geometry" />
        </mxCell>
        <mxCell id="oMNCSlBhxs57B0v-J_GE-33" value="Use" style="endArrow=open;endSize=12;dashed=1;html=1;rounded=0;" parent="1" source="oMNCSlBhxs57B0v-J_GE-11" target="oMNCSlBhxs57B0v-J_GE-32" edge="1">
          <mxGeometry width="160" relative="1" as="geometry">
            <mxPoint x="530" y="370" as="sourcePoint" />
            <mxPoint x="680" y="310" as="targetPoint" />
          </mxGeometry>
        </mxCell>
        <mxCell id="oMNCSlBhxs57B0v-J_GE-34" value="CU13:Autorizacion de medicamentos&amp;nbsp;" style="ellipse;whiteSpace=wrap;html=1;" parent="1" vertex="1">
          <mxGeometry x="770" y="350" width="120" height="60" as="geometry" />
        </mxCell>
        <mxCell id="oMNCSlBhxs57B0v-J_GE-35" value="Use" style="endArrow=open;endSize=12;dashed=1;html=1;rounded=0;" parent="1" source="oMNCSlBhxs57B0v-J_GE-32" target="oMNCSlBhxs57B0v-J_GE-34" edge="1">
          <mxGeometry width="160" relative="1" as="geometry">
            <mxPoint x="690" y="440" as="sourcePoint" />
            <mxPoint x="850" y="440" as="targetPoint" />
          </mxGeometry>
        </mxCell>
        <mxCell id="oMNCSlBhxs57B0v-J_GE-36" value="CU14: Agenda doctor" style="ellipse;whiteSpace=wrap;html=1;" parent="1" vertex="1">
          <mxGeometry x="410" y="610" width="140" height="70" as="geometry" />
        </mxCell>
        <mxCell id="oMNCSlBhxs57B0v-J_GE-37" value="Use" style="endArrow=open;endSize=12;dashed=1;html=1;rounded=0;" parent="1" source="oMNCSlBhxs57B0v-J_GE-30" target="oMNCSlBhxs57B0v-J_GE-36" edge="1">
          <mxGeometry width="160" relative="1" as="geometry">
            <mxPoint x="350" y="610" as="sourcePoint" />
            <mxPoint x="510" y="610" as="targetPoint" />
          </mxGeometry>
        </mxCell>
        <mxCell id="oMNCSlBhxs57B0v-J_GE-38" value="CU16: Copago" style="ellipse;whiteSpace=wrap;html=1;" parent="1" vertex="1">
          <mxGeometry x="620" y="175" width="90" height="45" as="geometry" />
        </mxCell>
        <mxCell id="oMNCSlBhxs57B0v-J_GE-39" value="Use" style="endArrow=open;endSize=12;dashed=1;html=1;rounded=0;entryX=0.452;entryY=1.044;entryDx=0;entryDy=0;entryPerimeter=0;exitX=0.713;exitY=0.078;exitDx=0;exitDy=0;exitPerimeter=0;" parent="1" source="oMNCSlBhxs57B0v-J_GE-11" target="oMNCSlBhxs57B0v-J_GE-38" edge="1">
          <mxGeometry width="160" relative="1" as="geometry">
            <mxPoint x="500" y="340" as="sourcePoint" />
            <mxPoint x="660" y="340" as="targetPoint" />
          </mxGeometry>
        </mxCell>
        <mxCell id="oMNCSlBhxs57B0v-J_GE-41" value="Use" style="endArrow=open;endSize=12;dashed=1;html=1;rounded=0;entryX=0.781;entryY=0.907;entryDx=0;entryDy=0;entryPerimeter=0;exitX=0.451;exitY=0.005;exitDx=0;exitDy=0;exitPerimeter=0;" parent="1" source="oMNCSlBhxs57B0v-J_GE-34" target="oMNCSlBhxs57B0v-J_GE-38" edge="1">
          <mxGeometry width="160" relative="1" as="geometry">
            <mxPoint x="720" y="280" as="sourcePoint" />
            <mxPoint x="880" y="280" as="targetPoint" />
          </mxGeometry>
        </mxCell>
        <mxCell id="oMNCSlBhxs57B0v-J_GE-46" value="CU17: Subir resultados&lt;div&gt;&lt;br&gt;&lt;/div&gt;" style="ellipse;whiteSpace=wrap;html=1;" parent="1" vertex="1">
          <mxGeometry x="550" y="400" width="80" height="40" as="geometry" />
        </mxCell>
        <mxCell id="oMNCSlBhxs57B0v-J_GE-47" value="Use" style="endArrow=open;endSize=12;dashed=1;html=1;rounded=0;" parent="1" source="oMNCSlBhxs57B0v-J_GE-23" target="oMNCSlBhxs57B0v-J_GE-46" edge="1">
          <mxGeometry width="160" relative="1" as="geometry">
            <mxPoint x="480" y="460" as="sourcePoint" />
            <mxPoint x="640" y="460" as="targetPoint" />
          </mxGeometry>
        </mxCell>
        <mxCell id="oMNCSlBhxs57B0v-J_GE-48" value="Use" style="endArrow=open;endSize=12;dashed=1;html=1;rounded=0;" parent="1" source="oMNCSlBhxs57B0v-J_GE-46" target="oMNCSlBhxs57B0v-J_GE-17" edge="1">
          <mxGeometry width="160" relative="1" as="geometry">
            <mxPoint x="640" y="460" as="sourcePoint" />
            <mxPoint x="800" y="460" as="targetPoint" />
          </mxGeometry>
        </mxCell>
      </root>
    </mxGraphModel>
  </diagram>
  <diagram name="Nurse" id="deUWpWaR0TrfYdmWdzV7">
    <mxGraphModel dx="1434" dy="780" grid="1" gridSize="10" guides="1" tooltips="1" connect="1" arrows="1" fold="1" page="1" pageScale="1" pageWidth="200000" pageHeight="200000" math="0" shadow="0">
      <root>
        <mxCell id="jUOf76TEXTjD7ETVh94k-0" />
        <mxCell id="jUOf76TEXTjD7ETVh94k-1" parent="jUOf76TEXTjD7ETVh94k-0" />
        <mxCell id="jUOf76TEXTjD7ETVh94k-2" value="&lt;font style=&quot;vertical-align: inherit;&quot;&gt;&lt;font style=&quot;vertical-align: inherit;&quot;&gt;ENFERMERO&lt;/font&gt;&lt;/font&gt;" style="shape=umlActor;verticalLabelPosition=bottom;verticalAlign=top;html=1;" parent="jUOf76TEXTjD7ETVh94k-1" vertex="1">
          <mxGeometry x="40" y="335" width="30" height="60" as="geometry" />
        </mxCell>
        <mxCell id="jUOf76TEXTjD7ETVh94k-3" value="CU1:Inicio Sesion" style="ellipse;whiteSpace=wrap;html=1;" parent="jUOf76TEXTjD7ETVh94k-1" vertex="1">
          <mxGeometry x="170" y="347.5" width="70" height="45" as="geometry" />
        </mxCell>
        <mxCell id="jUOf76TEXTjD7ETVh94k-7" value="CU3:Solicitud Citas" style="ellipse;whiteSpace=wrap;html=1;" parent="jUOf76TEXTjD7ETVh94k-1" vertex="1">
          <mxGeometry x="280" y="352.5" width="80" height="40" as="geometry" />
        </mxCell>
        <mxCell id="jUOf76TEXTjD7ETVh94k-8" value="CU4: Solicitud examenes" style="ellipse;whiteSpace=wrap;html=1;" parent="jUOf76TEXTjD7ETVh94k-1" vertex="1">
          <mxGeometry x="280" y="420" width="80" height="40" as="geometry" />
        </mxCell>
        <mxCell id="jUOf76TEXTjD7ETVh94k-9" value="CU5:Asignacion de citas" style="ellipse;whiteSpace=wrap;html=1;" parent="jUOf76TEXTjD7ETVh94k-1" vertex="1">
          <mxGeometry x="430" y="345" width="100" height="50" as="geometry" />
        </mxCell>
        <mxCell id="jUOf76TEXTjD7ETVh94k-10" value="Extends" style="endArrow=block;endSize=16;endFill=0;html=1;rounded=0;" parent="jUOf76TEXTjD7ETVh94k-1" edge="1">
          <mxGeometry width="160" relative="1" as="geometry">
            <mxPoint x="70" y="370" as="sourcePoint" />
            <mxPoint x="170" y="370" as="targetPoint" />
          </mxGeometry>
        </mxCell>
        <mxCell id="jUOf76TEXTjD7ETVh94k-11" value="Use" style="endArrow=open;endSize=12;dashed=1;html=1;rounded=0;" parent="jUOf76TEXTjD7ETVh94k-1" source="jUOf76TEXTjD7ETVh94k-3" edge="1">
          <mxGeometry width="160" relative="1" as="geometry">
            <mxPoint x="240" y="370" as="sourcePoint" />
            <mxPoint x="280" y="370" as="targetPoint" />
          </mxGeometry>
        </mxCell>
        <mxCell id="jUOf76TEXTjD7ETVh94k-13" value="Use" style="endArrow=open;endSize=12;dashed=1;html=1;rounded=0;exitX=0.94;exitY=0.797;exitDx=0;exitDy=0;exitPerimeter=0;entryX=0.258;entryY=0.136;entryDx=0;entryDy=0;entryPerimeter=0;" parent="jUOf76TEXTjD7ETVh94k-1" source="jUOf76TEXTjD7ETVh94k-3" target="jUOf76TEXTjD7ETVh94k-8" edge="1">
          <mxGeometry width="160" relative="1" as="geometry">
            <mxPoint x="220" y="400" as="sourcePoint" />
            <mxPoint x="280" y="440" as="targetPoint" />
          </mxGeometry>
        </mxCell>
        <mxCell id="jUOf76TEXTjD7ETVh94k-15" value="Extends" style="endArrow=block;endSize=16;endFill=0;html=1;rounded=0;" parent="jUOf76TEXTjD7ETVh94k-1" source="jUOf76TEXTjD7ETVh94k-8" target="jUOf76TEXTjD7ETVh94k-18" edge="1">
          <mxGeometry width="160" relative="1" as="geometry">
            <mxPoint x="360" y="440" as="sourcePoint" />
            <mxPoint x="460" y="470" as="targetPoint" />
          </mxGeometry>
        </mxCell>
        <mxCell id="jUOf76TEXTjD7ETVh94k-16" value="Extends" style="endArrow=block;endSize=16;endFill=0;html=1;rounded=0;" parent="jUOf76TEXTjD7ETVh94k-1" source="jUOf76TEXTjD7ETVh94k-7" target="jUOf76TEXTjD7ETVh94k-9" edge="1">
          <mxGeometry width="160" relative="1" as="geometry">
            <mxPoint x="360" y="372.5" as="sourcePoint" />
            <mxPoint x="520" y="372.5" as="targetPoint" />
          </mxGeometry>
        </mxCell>
        <mxCell id="jUOf76TEXTjD7ETVh94k-18" value="CU6: Asignacion deExamen" style="ellipse;whiteSpace=wrap;html=1;" parent="jUOf76TEXTjD7ETVh94k-1" vertex="1">
          <mxGeometry x="430" y="460" width="100" height="40" as="geometry" />
        </mxCell>
        <mxCell id="jUOf76TEXTjD7ETVh94k-21" value="CU9:Bases de datos" style="ellipse;whiteSpace=wrap;html=1;" parent="jUOf76TEXTjD7ETVh94k-1" vertex="1">
          <mxGeometry x="200" y="470" width="90" height="70" as="geometry" />
        </mxCell>
        <mxCell id="jUOf76TEXTjD7ETVh94k-22" value="Use" style="endArrow=open;endSize=12;dashed=1;html=1;rounded=0;" parent="jUOf76TEXTjD7ETVh94k-1" source="jUOf76TEXTjD7ETVh94k-3" target="jUOf76TEXTjD7ETVh94k-21" edge="1">
          <mxGeometry width="160" relative="1" as="geometry">
            <mxPoint x="70" y="519.66" as="sourcePoint" />
            <mxPoint x="230" y="519.66" as="targetPoint" />
          </mxGeometry>
        </mxCell>
        <mxCell id="jUOf76TEXTjD7ETVh94k-23" value="CU10: Historial medico paciente" style="ellipse;whiteSpace=wrap;html=1;" parent="jUOf76TEXTjD7ETVh94k-1" vertex="1">
          <mxGeometry x="210" y="580" width="90" height="60" as="geometry" />
        </mxCell>
        <mxCell id="jUOf76TEXTjD7ETVh94k-24" value="Use" style="endArrow=open;endSize=12;dashed=1;html=1;rounded=0;exitX=0.559;exitY=1.048;exitDx=0;exitDy=0;exitPerimeter=0;" parent="jUOf76TEXTjD7ETVh94k-1" source="jUOf76TEXTjD7ETVh94k-21" target="jUOf76TEXTjD7ETVh94k-23" edge="1">
          <mxGeometry width="160" relative="1" as="geometry">
            <mxPoint x="260" y="550" as="sourcePoint" />
            <mxPoint x="420" y="550" as="targetPoint" />
          </mxGeometry>
        </mxCell>
        <mxCell id="jUOf76TEXTjD7ETVh94k-27" value="CU12:Receta de medicamentos&lt;div&gt;&lt;br&gt;&lt;/div&gt;" style="ellipse;whiteSpace=wrap;html=1;" parent="jUOf76TEXTjD7ETVh94k-1" vertex="1">
          <mxGeometry x="620" y="353" width="110" height="47" as="geometry" />
        </mxCell>
        <mxCell id="jUOf76TEXTjD7ETVh94k-28" value="Use" style="endArrow=open;endSize=12;dashed=1;html=1;rounded=0;" parent="jUOf76TEXTjD7ETVh94k-1" source="jUOf76TEXTjD7ETVh94k-9" target="jUOf76TEXTjD7ETVh94k-27" edge="1">
          <mxGeometry width="160" relative="1" as="geometry">
            <mxPoint x="530" y="370" as="sourcePoint" />
            <mxPoint x="680" y="310" as="targetPoint" />
          </mxGeometry>
        </mxCell>
        <mxCell id="jUOf76TEXTjD7ETVh94k-29" value="CU13:Autorizacion de medicamentos&amp;nbsp;" style="ellipse;whiteSpace=wrap;html=1;" parent="jUOf76TEXTjD7ETVh94k-1" vertex="1">
          <mxGeometry x="770" y="350" width="120" height="60" as="geometry" />
        </mxCell>
        <mxCell id="jUOf76TEXTjD7ETVh94k-30" value="Use" style="endArrow=open;endSize=12;dashed=1;html=1;rounded=0;" parent="jUOf76TEXTjD7ETVh94k-1" source="jUOf76TEXTjD7ETVh94k-27" target="jUOf76TEXTjD7ETVh94k-29" edge="1">
          <mxGeometry width="160" relative="1" as="geometry">
            <mxPoint x="690" y="440" as="sourcePoint" />
            <mxPoint x="850" y="440" as="targetPoint" />
          </mxGeometry>
        </mxCell>
      </root>
    </mxGraphModel>
  </diagram>
  <diagram name="User" id="tBk9dFrOyf1Hu1sL3p-m">
    <mxGraphModel dx="1434" dy="780" grid="1" gridSize="10" guides="1" tooltips="1" connect="1" arrows="1" fold="1" page="1" pageScale="1" pageWidth="200000" pageHeight="200000" math="0" shadow="0">
      <root>
        <mxCell id="rN9Azcau8fFEEphBLJp2-0" />
        <mxCell id="rN9Azcau8fFEEphBLJp2-1" parent="rN9Azcau8fFEEphBLJp2-0" />
        <mxCell id="rN9Azcau8fFEEphBLJp2-2" value="&lt;font style=&quot;vertical-align: inherit;&quot;&gt;&lt;font style=&quot;vertical-align: inherit;&quot;&gt;USER&lt;/font&gt;&lt;/font&gt;" style="shape=umlActor;verticalLabelPosition=bottom;verticalAlign=top;html=1;" parent="rN9Azcau8fFEEphBLJp2-1" vertex="1">
          <mxGeometry x="40" y="335" width="30" height="60" as="geometry" />
        </mxCell>
        <mxCell id="rN9Azcau8fFEEphBLJp2-3" value="CU1:Inicio Sesion" style="ellipse;whiteSpace=wrap;html=1;" parent="rN9Azcau8fFEEphBLJp2-1" vertex="1">
          <mxGeometry x="170" y="347.5" width="70" height="45" as="geometry" />
        </mxCell>
        <mxCell id="rN9Azcau8fFEEphBLJp2-4" value="Registo" style="ellipse;whiteSpace=wrap;html=1;" parent="rN9Azcau8fFEEphBLJp2-1" vertex="1">
          <mxGeometry x="160" y="240" width="80" height="30" as="geometry" />
        </mxCell>
        <mxCell id="rN9Azcau8fFEEphBLJp2-5" value="" style="endArrow=block;startArrow=block;endFill=1;startFill=1;html=1;rounded=0;entryX=0.443;entryY=-0.014;entryDx=0;entryDy=0;entryPerimeter=0;" parent="rN9Azcau8fFEEphBLJp2-1" source="rN9Azcau8fFEEphBLJp2-4" target="rN9Azcau8fFEEphBLJp2-3" edge="1">
          <mxGeometry width="160" relative="1" as="geometry">
            <mxPoint x="200" y="210" as="sourcePoint" />
            <mxPoint x="200" y="370" as="targetPoint" />
          </mxGeometry>
        </mxCell>
        <mxCell id="rN9Azcau8fFEEphBLJp2-6" value="CU2:Soliciud afiliaciÃ³n" style="ellipse;whiteSpace=wrap;html=1;" parent="rN9Azcau8fFEEphBLJp2-1" vertex="1">
          <mxGeometry x="280" y="280" width="80" height="40" as="geometry" />
        </mxCell>
        <mxCell id="rN9Azcau8fFEEphBLJp2-7" value="CU3:Solicitud Citas" style="ellipse;whiteSpace=wrap;html=1;" parent="rN9Azcau8fFEEphBLJp2-1" vertex="1">
          <mxGeometry x="280" y="352.5" width="80" height="40" as="geometry" />
        </mxCell>
        <mxCell id="rN9Azcau8fFEEphBLJp2-8" value="CU4: Solicitud examenes" style="ellipse;whiteSpace=wrap;html=1;" parent="rN9Azcau8fFEEphBLJp2-1" vertex="1">
          <mxGeometry x="280" y="420" width="80" height="40" as="geometry" />
        </mxCell>
        <mxCell id="rN9Azcau8fFEEphBLJp2-9" value="CU5:Asignacion de citas" style="ellipse;whiteSpace=wrap;html=1;" parent="rN9Azcau8fFEEphBLJp2-1" vertex="1">
          <mxGeometry x="430" y="345" width="100" height="50" as="geometry" />
        </mxCell>
        <mxCell id="rN9Azcau8fFEEphBLJp2-10" value="Extends" style="endArrow=block;endSize=16;endFill=0;html=1;rounded=0;" parent="rN9Azcau8fFEEphBLJp2-1" edge="1">
          <mxGeometry width="160" relative="1" as="geometry">
            <mxPoint x="70" y="370" as="sourcePoint" />
            <mxPoint x="170" y="370" as="targetPoint" />
          </mxGeometry>
        </mxCell>
        <mxCell id="rN9Azcau8fFEEphBLJp2-11" value="Use" style="endArrow=open;endSize=12;dashed=1;html=1;rounded=0;" parent="rN9Azcau8fFEEphBLJp2-1" source="rN9Azcau8fFEEphBLJp2-3" edge="1">
          <mxGeometry width="160" relative="1" as="geometry">
            <mxPoint x="240" y="370" as="sourcePoint" />
            <mxPoint x="280" y="370" as="targetPoint" />
          </mxGeometry>
        </mxCell>
        <mxCell id="rN9Azcau8fFEEphBLJp2-12" value="Use" style="endArrow=open;endSize=12;dashed=1;html=1;rounded=0;" parent="rN9Azcau8fFEEphBLJp2-1" source="rN9Azcau8fFEEphBLJp2-3" target="rN9Azcau8fFEEphBLJp2-6" edge="1">
          <mxGeometry width="160" relative="1" as="geometry">
            <mxPoint x="240" y="370" as="sourcePoint" />
            <mxPoint x="400" y="370" as="targetPoint" />
          </mxGeometry>
        </mxCell>
        <mxCell id="rN9Azcau8fFEEphBLJp2-13" value="Use" style="endArrow=open;endSize=12;dashed=1;html=1;rounded=0;exitX=0.94;exitY=0.797;exitDx=0;exitDy=0;exitPerimeter=0;entryX=0.258;entryY=0.136;entryDx=0;entryDy=0;entryPerimeter=0;" parent="rN9Azcau8fFEEphBLJp2-1" source="rN9Azcau8fFEEphBLJp2-3" target="rN9Azcau8fFEEphBLJp2-8" edge="1">
          <mxGeometry width="160" relative="1" as="geometry">
            <mxPoint x="220" y="400" as="sourcePoint" />
            <mxPoint x="280" y="440" as="targetPoint" />
          </mxGeometry>
        </mxCell>
        <mxCell id="rN9Azcau8fFEEphBLJp2-14" value="CU8: Lectura de resultados" style="ellipse;whiteSpace=wrap;html=1;" parent="rN9Azcau8fFEEphBLJp2-1" vertex="1">
          <mxGeometry x="560" y="500" width="100" height="40" as="geometry" />
        </mxCell>
        <mxCell id="rN9Azcau8fFEEphBLJp2-15" value="Extends" style="endArrow=block;endSize=16;endFill=0;html=1;rounded=0;" parent="rN9Azcau8fFEEphBLJp2-1" source="rN9Azcau8fFEEphBLJp2-8" target="rN9Azcau8fFEEphBLJp2-14" edge="1">
          <mxGeometry width="160" relative="1" as="geometry">
            <mxPoint x="360" y="440" as="sourcePoint" />
            <mxPoint x="437.6000847997457" y="469.4000211999364" as="targetPoint" />
          </mxGeometry>
        </mxCell>
        <mxCell id="rN9Azcau8fFEEphBLJp2-16" value="Extends" style="endArrow=block;endSize=16;endFill=0;html=1;rounded=0;" parent="rN9Azcau8fFEEphBLJp2-1" source="rN9Azcau8fFEEphBLJp2-7" target="rN9Azcau8fFEEphBLJp2-9" edge="1">
          <mxGeometry width="160" relative="1" as="geometry">
            <mxPoint x="360" y="372.5" as="sourcePoint" />
            <mxPoint x="520" y="372.5" as="targetPoint" />
          </mxGeometry>
        </mxCell>
        <mxCell id="rN9Azcau8fFEEphBLJp2-21" value="CU9:Bases de datos" style="ellipse;whiteSpace=wrap;html=1;" parent="rN9Azcau8fFEEphBLJp2-1" vertex="1">
          <mxGeometry x="200" y="470" width="90" height="70" as="geometry" />
        </mxCell>
        <mxCell id="rN9Azcau8fFEEphBLJp2-22" value="Use" style="endArrow=open;endSize=12;dashed=1;html=1;rounded=0;" parent="rN9Azcau8fFEEphBLJp2-1" source="rN9Azcau8fFEEphBLJp2-3" target="rN9Azcau8fFEEphBLJp2-21" edge="1">
          <mxGeometry width="160" relative="1" as="geometry">
            <mxPoint x="70" y="519.66" as="sourcePoint" />
            <mxPoint x="230" y="519.66" as="targetPoint" />
          </mxGeometry>
        </mxCell>
        <mxCell id="rN9Azcau8fFEEphBLJp2-23" value="CU10: Historial medico paciente" style="ellipse;whiteSpace=wrap;html=1;" parent="rN9Azcau8fFEEphBLJp2-1" vertex="1">
          <mxGeometry x="210" y="580" width="90" height="60" as="geometry" />
        </mxCell>
        <mxCell id="rN9Azcau8fFEEphBLJp2-24" value="Use" style="endArrow=open;endSize=12;dashed=1;html=1;rounded=0;exitX=0.559;exitY=1.048;exitDx=0;exitDy=0;exitPerimeter=0;" parent="rN9Azcau8fFEEphBLJp2-1" source="rN9Azcau8fFEEphBLJp2-21" target="rN9Azcau8fFEEphBLJp2-23" edge="1">
          <mxGeometry width="160" relative="1" as="geometry">
            <mxPoint x="260" y="550" as="sourcePoint" />
            <mxPoint x="420" y="550" as="targetPoint" />
          </mxGeometry>
        </mxCell>
        <mxCell id="rN9Azcau8fFEEphBLJp2-27" value="CU12:Receta de medicamentos&lt;div&gt;&lt;br&gt;&lt;/div&gt;" style="ellipse;whiteSpace=wrap;html=1;" parent="rN9Azcau8fFEEphBLJp2-1" vertex="1">
          <mxGeometry x="620" y="353" width="110" height="47" as="geometry" />
        </mxCell>
        <mxCell id="rN9Azcau8fFEEphBLJp2-28" value="Use" style="endArrow=open;endSize=12;dashed=1;html=1;rounded=0;" parent="rN9Azcau8fFEEphBLJp2-1" source="rN9Azcau8fFEEphBLJp2-9" target="rN9Azcau8fFEEphBLJp2-27" edge="1">
          <mxGeometry width="160" relative="1" as="geometry">
            <mxPoint x="530" y="370" as="sourcePoint" />
            <mxPoint x="680" y="310" as="targetPoint" />
          </mxGeometry>
        </mxCell>
        <mxCell id="rN9Azcau8fFEEphBLJp2-29" value="CU13:Autorizacion de medicamentos&amp;nbsp;" style="ellipse;whiteSpace=wrap;html=1;" parent="rN9Azcau8fFEEphBLJp2-1" vertex="1">
          <mxGeometry x="770" y="350" width="120" height="60" as="geometry" />
        </mxCell>
        <mxCell id="rN9Azcau8fFEEphBLJp2-30" value="Use" style="endArrow=open;endSize=12;dashed=1;html=1;rounded=0;" parent="rN9Azcau8fFEEphBLJp2-1" source="rN9Azcau8fFEEphBLJp2-27" target="rN9Azcau8fFEEphBLJp2-29" edge="1">
          <mxGeometry width="160" relative="1" as="geometry">
            <mxPoint x="690" y="440" as="sourcePoint" />
            <mxPoint x="850" y="440" as="targetPoint" />
          </mxGeometry>
        </mxCell>
        <mxCell id="rN9Azcau8fFEEphBLJp2-33" value="CU16: Copago" style="ellipse;whiteSpace=wrap;html=1;" parent="rN9Azcau8fFEEphBLJp2-1" vertex="1">
          <mxGeometry x="620" y="175" width="90" height="45" as="geometry" />
        </mxCell>
        <mxCell id="rN9Azcau8fFEEphBLJp2-34" value="Use" style="endArrow=open;endSize=12;dashed=1;html=1;rounded=0;entryX=0.452;entryY=1.044;entryDx=0;entryDy=0;entryPerimeter=0;exitX=0.713;exitY=0.078;exitDx=0;exitDy=0;exitPerimeter=0;" parent="rN9Azcau8fFEEphBLJp2-1" source="rN9Azcau8fFEEphBLJp2-9" target="rN9Azcau8fFEEphBLJp2-33" edge="1">
          <mxGeometry width="160" relative="1" as="geometry">
            <mxPoint x="500" y="340" as="sourcePoint" />
            <mxPoint x="660" y="340" as="targetPoint" />
          </mxGeometry>
        </mxCell>
        <mxCell id="rN9Azcau8fFEEphBLJp2-35" value="Use" style="endArrow=open;endSize=12;dashed=1;html=1;rounded=0;entryX=0;entryY=0.5;entryDx=0;entryDy=0;" parent="rN9Azcau8fFEEphBLJp2-1" source="rN9Azcau8fFEEphBLJp2-6" target="rN9Azcau8fFEEphBLJp2-33" edge="1">
          <mxGeometry width="160" relative="1" as="geometry">
            <mxPoint x="500" y="210" as="sourcePoint" />
            <mxPoint x="660" y="210" as="targetPoint" />
          </mxGeometry>
        </mxCell>
        <mxCell id="rN9Azcau8fFEEphBLJp2-36" value="Use" style="endArrow=open;endSize=12;dashed=1;html=1;rounded=0;entryX=0.781;entryY=0.907;entryDx=0;entryDy=0;entryPerimeter=0;exitX=0.451;exitY=0.005;exitDx=0;exitDy=0;exitPerimeter=0;" parent="rN9Azcau8fFEEphBLJp2-1" source="rN9Azcau8fFEEphBLJp2-29" target="rN9Azcau8fFEEphBLJp2-33" edge="1">
          <mxGeometry width="160" relative="1" as="geometry">
            <mxPoint x="720" y="280" as="sourcePoint" />
            <mxPoint x="880" y="280" as="targetPoint" />
          </mxGeometry>
        </mxCell>
      </root>
    </mxGraphModel>
  </diagram>
  <diagram name="Doctor" id="FFYVuZrISYTFPhVnSGJh">
    <mxGraphModel dx="1434" dy="780" grid="1" gridSize="10" guides="1" tooltips="1" connect="1" arrows="1" fold="1" page="1" pageScale="1" pageWidth="200000" pageHeight="200000" math="0" shadow="0">
      <root>
        <mxCell id="Q4glN3iVvKNpuo2n6neO-0" />
        <mxCell id="Q4glN3iVvKNpuo2n6neO-1" parent="Q4glN3iVvKNpuo2n6neO-0" />
        <mxCell id="Q4glN3iVvKNpuo2n6neO-2" value="&lt;font style=&quot;vertical-align: inherit;&quot;&gt;&lt;font style=&quot;vertical-align: inherit;&quot;&gt;DOCTOR&lt;/font&gt;&lt;/font&gt;" style="shape=umlActor;verticalLabelPosition=bottom;verticalAlign=top;html=1;" parent="Q4glN3iVvKNpuo2n6neO-1" vertex="1">
          <mxGeometry x="40" y="335" width="30" height="60" as="geometry" />
        </mxCell>
        <mxCell id="Q4glN3iVvKNpuo2n6neO-3" value="CU1:Inicio Sesion" style="ellipse;whiteSpace=wrap;html=1;" parent="Q4glN3iVvKNpuo2n6neO-1" vertex="1">
          <mxGeometry x="170" y="347.5" width="70" height="45" as="geometry" />
        </mxCell>
        <mxCell id="Q4glN3iVvKNpuo2n6neO-7" value="CU3:Solicitud Citas" style="ellipse;whiteSpace=wrap;html=1;" parent="Q4glN3iVvKNpuo2n6neO-1" vertex="1">
          <mxGeometry x="280" y="352.5" width="80" height="40" as="geometry" />
        </mxCell>
        <mxCell id="Q4glN3iVvKNpuo2n6neO-8" value="CU4: Solicitud examenes" style="ellipse;whiteSpace=wrap;html=1;" parent="Q4glN3iVvKNpuo2n6neO-1" vertex="1">
          <mxGeometry x="280" y="420" width="80" height="40" as="geometry" />
        </mxCell>
        <mxCell id="Q4glN3iVvKNpuo2n6neO-9" value="CU5:Asignacion de citas" style="ellipse;whiteSpace=wrap;html=1;" parent="Q4glN3iVvKNpuo2n6neO-1" vertex="1">
          <mxGeometry x="430" y="345" width="100" height="50" as="geometry" />
        </mxCell>
        <mxCell id="Q4glN3iVvKNpuo2n6neO-10" value="Extends" style="endArrow=block;endSize=16;endFill=0;html=1;rounded=0;" parent="Q4glN3iVvKNpuo2n6neO-1" edge="1">
          <mxGeometry width="160" relative="1" as="geometry">
            <mxPoint x="70" y="370" as="sourcePoint" />
            <mxPoint x="170" y="370" as="targetPoint" />
          </mxGeometry>
        </mxCell>
        <mxCell id="Q4glN3iVvKNpuo2n6neO-11" value="Use" style="endArrow=open;endSize=12;dashed=1;html=1;rounded=0;" parent="Q4glN3iVvKNpuo2n6neO-1" source="Q4glN3iVvKNpuo2n6neO-3" edge="1">
          <mxGeometry width="160" relative="1" as="geometry">
            <mxPoint x="240" y="370" as="sourcePoint" />
            <mxPoint x="280" y="370" as="targetPoint" />
          </mxGeometry>
        </mxCell>
        <mxCell id="Q4glN3iVvKNpuo2n6neO-13" value="Use" style="endArrow=open;endSize=12;dashed=1;html=1;rounded=0;exitX=0.94;exitY=0.797;exitDx=0;exitDy=0;exitPerimeter=0;entryX=0.258;entryY=0.136;entryDx=0;entryDy=0;entryPerimeter=0;" parent="Q4glN3iVvKNpuo2n6neO-1" source="Q4glN3iVvKNpuo2n6neO-3" target="Q4glN3iVvKNpuo2n6neO-8" edge="1">
          <mxGeometry width="160" relative="1" as="geometry">
            <mxPoint x="220" y="400" as="sourcePoint" />
            <mxPoint x="280" y="440" as="targetPoint" />
          </mxGeometry>
        </mxCell>
        <mxCell id="Q4glN3iVvKNpuo2n6neO-14" value="CU8: Lectura de resultados" style="ellipse;whiteSpace=wrap;html=1;" parent="Q4glN3iVvKNpuo2n6neO-1" vertex="1">
          <mxGeometry x="560" y="500" width="100" height="40" as="geometry" />
        </mxCell>
        <mxCell id="Q4glN3iVvKNpuo2n6neO-15" value="Extends" style="endArrow=block;endSize=16;endFill=0;html=1;rounded=0;" parent="Q4glN3iVvKNpuo2n6neO-1" source="Q4glN3iVvKNpuo2n6neO-8" target="Q4glN3iVvKNpuo2n6neO-18" edge="1">
          <mxGeometry width="160" relative="1" as="geometry">
            <mxPoint x="360" y="440" as="sourcePoint" />
            <mxPoint x="460" y="470" as="targetPoint" />
          </mxGeometry>
        </mxCell>
        <mxCell id="Q4glN3iVvKNpuo2n6neO-16" value="Extends" style="endArrow=block;endSize=16;endFill=0;html=1;rounded=0;" parent="Q4glN3iVvKNpuo2n6neO-1" source="Q4glN3iVvKNpuo2n6neO-7" target="Q4glN3iVvKNpuo2n6neO-9" edge="1">
          <mxGeometry width="160" relative="1" as="geometry">
            <mxPoint x="360" y="372.5" as="sourcePoint" />
            <mxPoint x="520" y="372.5" as="targetPoint" />
          </mxGeometry>
        </mxCell>
        <mxCell id="Q4glN3iVvKNpuo2n6neO-18" value="CU6: Asignacion deExamen" style="ellipse;whiteSpace=wrap;html=1;" parent="Q4glN3iVvKNpuo2n6neO-1" vertex="1">
          <mxGeometry x="430" y="460" width="100" height="40" as="geometry" />
        </mxCell>
        <mxCell id="Q4glN3iVvKNpuo2n6neO-20" value="Extends" style="endArrow=block;endSize=16;endFill=0;html=1;rounded=0;exitX=0.996;exitY=0.636;exitDx=0;exitDy=0;exitPerimeter=0;" parent="Q4glN3iVvKNpuo2n6neO-1" source="Q4glN3iVvKNpuo2n6neO-18" target="Q4glN3iVvKNpuo2n6neO-14" edge="1">
          <mxGeometry width="160" relative="1" as="geometry">
            <mxPoint x="400" y="520" as="sourcePoint" />
            <mxPoint x="560" y="520" as="targetPoint" />
          </mxGeometry>
        </mxCell>
        <mxCell id="Q4glN3iVvKNpuo2n6neO-21" value="CU9:Bases de datos" style="ellipse;whiteSpace=wrap;html=1;" parent="Q4glN3iVvKNpuo2n6neO-1" vertex="1">
          <mxGeometry x="200" y="470" width="90" height="70" as="geometry" />
        </mxCell>
        <mxCell id="Q4glN3iVvKNpuo2n6neO-22" value="Use" style="endArrow=open;endSize=12;dashed=1;html=1;rounded=0;" parent="Q4glN3iVvKNpuo2n6neO-1" source="Q4glN3iVvKNpuo2n6neO-3" target="Q4glN3iVvKNpuo2n6neO-21" edge="1">
          <mxGeometry width="160" relative="1" as="geometry">
            <mxPoint x="70" y="519.66" as="sourcePoint" />
            <mxPoint x="230" y="519.66" as="targetPoint" />
          </mxGeometry>
        </mxCell>
        <mxCell id="Q4glN3iVvKNpuo2n6neO-23" value="CU10: Historial medico paciente" style="ellipse;whiteSpace=wrap;html=1;" parent="Q4glN3iVvKNpuo2n6neO-1" vertex="1">
          <mxGeometry x="210" y="580" width="90" height="60" as="geometry" />
        </mxCell>
        <mxCell id="Q4glN3iVvKNpuo2n6neO-24" value="Use" style="endArrow=open;endSize=12;dashed=1;html=1;rounded=0;exitX=0.559;exitY=1.048;exitDx=0;exitDy=0;exitPerimeter=0;" parent="Q4glN3iVvKNpuo2n6neO-1" source="Q4glN3iVvKNpuo2n6neO-21" target="Q4glN3iVvKNpuo2n6neO-23" edge="1">
          <mxGeometry width="160" relative="1" as="geometry">
            <mxPoint x="260" y="550" as="sourcePoint" />
            <mxPoint x="420" y="550" as="targetPoint" />
          </mxGeometry>
        </mxCell>
        <mxCell id="Q4glN3iVvKNpuo2n6neO-27" value="CU12:Receta de medicamentos&lt;div&gt;&lt;br&gt;&lt;/div&gt;" style="ellipse;whiteSpace=wrap;html=1;" parent="Q4glN3iVvKNpuo2n6neO-1" vertex="1">
          <mxGeometry x="620" y="353" width="110" height="47" as="geometry" />
        </mxCell>
        <mxCell id="Q4glN3iVvKNpuo2n6neO-28" value="Use" style="endArrow=open;endSize=12;dashed=1;html=1;rounded=0;" parent="Q4glN3iVvKNpuo2n6neO-1" source="Q4glN3iVvKNpuo2n6neO-9" target="Q4glN3iVvKNpuo2n6neO-27" edge="1">
          <mxGeometry width="160" relative="1" as="geometry">
            <mxPoint x="530" y="370" as="sourcePoint" />
            <mxPoint x="680" y="310" as="targetPoint" />
          </mxGeometry>
        </mxCell>
        <mxCell id="Q4glN3iVvKNpuo2n6neO-29" value="CU13:Autorizacion de medicamentos&amp;nbsp;" style="ellipse;whiteSpace=wrap;html=1;" parent="Q4glN3iVvKNpuo2n6neO-1" vertex="1">
          <mxGeometry x="770" y="350" width="120" height="60" as="geometry" />
        </mxCell>
        <mxCell id="Q4glN3iVvKNpuo2n6neO-30" value="Use" style="endArrow=open;endSize=12;dashed=1;html=1;rounded=0;" parent="Q4glN3iVvKNpuo2n6neO-1" source="Q4glN3iVvKNpuo2n6neO-27" target="Q4glN3iVvKNpuo2n6neO-29" edge="1">
          <mxGeometry width="160" relative="1" as="geometry">
            <mxPoint x="690" y="440" as="sourcePoint" />
            <mxPoint x="850" y="440" as="targetPoint" />
          </mxGeometry>
        </mxCell>
        <mxCell id="Q4glN3iVvKNpuo2n6neO-37" value="CU17: Subir resultados&lt;div&gt;&lt;br&gt;&lt;/div&gt;" style="ellipse;whiteSpace=wrap;html=1;" parent="Q4glN3iVvKNpuo2n6neO-1" vertex="1">
          <mxGeometry x="550" y="400" width="80" height="40" as="geometry" />
        </mxCell>
        <mxCell id="Q4glN3iVvKNpuo2n6neO-38" value="Use" style="endArrow=open;endSize=12;dashed=1;html=1;rounded=0;" parent="Q4glN3iVvKNpuo2n6neO-1" source="Q4glN3iVvKNpuo2n6neO-18" target="Q4glN3iVvKNpuo2n6neO-37" edge="1">
          <mxGeometry width="160" relative="1" as="geometry">
            <mxPoint x="480" y="460" as="sourcePoint" />
            <mxPoint x="640" y="460" as="targetPoint" />
          </mxGeometry>
        </mxCell>
        <mxCell id="Q4glN3iVvKNpuo2n6neO-39" value="Use" style="endArrow=open;endSize=12;dashed=1;html=1;rounded=0;" parent="Q4glN3iVvKNpuo2n6neO-1" source="Q4glN3iVvKNpuo2n6neO-37" target="Q4glN3iVvKNpuo2n6neO-14" edge="1">
          <mxGeometry width="160" relative="1" as="geometry">
            <mxPoint x="640" y="460" as="sourcePoint" />
            <mxPoint x="800" y="460" as="targetPoint" />
          </mxGeometry>
        </mxCell>
        <mxCell id="3aS7QNv1p8n4nwQDoTD7-0" value="Agenda doctor" style="ellipse;whiteSpace=wrap;html=1;" parent="Q4glN3iVvKNpuo2n6neO-1" vertex="1">
          <mxGeometry x="340" y="550" width="80" height="30" as="geometry" />
        </mxCell>
        <mxCell id="JweaTmwqVTBMnrEeE_Z3-0" value="Extends" style="endArrow=block;endSize=16;endFill=0;html=1;rounded=0;entryX=0;entryY=0;entryDx=0;entryDy=0;" parent="Q4glN3iVvKNpuo2n6neO-1" target="3aS7QNv1p8n4nwQDoTD7-0" edge="1">
          <mxGeometry width="160" relative="1" as="geometry">
            <mxPoint x="290" y="510" as="sourcePoint" />
            <mxPoint x="450" y="510" as="targetPoint" />
          </mxGeometry>
        </mxCell>
      </root>
    </mxGraphModel>
  </diagram>
</mxfile>
